<svg version="1.0" xmlns="http://www.w3.org/2000/svg"
  viewBox="0 0 1280.000000 1280.000000"
 preserveAspectRatio="xMidYMid meet">
<g transform="translate(0.000000,1280.000000) scale(0.100000,-0.100000)"
fill="#000000" stroke="none">
<path d="M6270 11429 c-236 -22 -446 -96 -651 -230 -116 -76 -312 -270 -387
-384 -104 -157 -183 -349 -216 -525 -9 -45 -18 -86 -22 -91 -3 -5 -411 -9
-997 -9 l-992 0 -51 -24 c-56 -26 -98 -74 -120 -133 -21 -60 -20 -703 2 -766
16 -48 82 -118 132 -139 17 -8 115 -14 267 -18 l240 -5 5 -3590 5 -3590 27
-80 c91 -266 306 -443 582 -476 51 -6 897 -9 2316 -7 2510 3 2270 -4 2437 79
154 77 276 218 337 388 l31 86 5 3595 5 3595 290 5 c328 6 334 7 404 86 60 69
62 87 59 480 l-3 351 -30 49 c-19 30 -49 60 -79 79 l-49 30 -1004 3 -1004 2
-8 23 c-5 12 -14 52 -20 89 -42 245 -180 506 -373 704 -165 169 -354 289 -568
358 -129 42 -184 53 -325 66 -120 11 -121 11 -245 -1z m338 -610 c258 -66 473
-265 564 -521 22 -62 26 -84 17 -94 -10 -12 -141 -14 -789 -14 -648 0 -779 2
-789 14 -9 10 -5 32 17 94 102 289 360 500 659 541 90 13 229 4 321 -20z"/>
</g>
</svg>
